Normalized EMG Linear Envelopes
nRows=142
nColumns=4

endheader
time	 med_gas_r	  soleus_r	 tib_ant_r	
0	  0.022437	  0.113998	 -0.126461	
0.0332661	  0.027532	  0.147029	 -0.047219	
0.0665323	  0.031987	  0.176238	  0.024248	
0.0997984	  0.035455	  0.199428	  0.082498	
0.133065	  0.037926	  0.216016	  0.125790	
0.166331	  0.039592	  0.226621	  0.155361	
0.199597	  0.040699	  0.232561	  0.173852	
0.232863	  0.041478	  0.235557	  0.184026	
0.266129	  0.042151	  0.237354	  0.188221	
0.299395	  0.042911	  0.239045	  0.188330	
0.332661	  0.043871	  0.240515	  0.185919	
0.365927	  0.045027	  0.240619	  0.182348	
0.399194	  0.046294	  0.238152	  0.178753	
0.43246	  0.047559	  0.232890	  0.175885	
0.465726	  0.048728	  0.225849	  0.173984	
0.498992	  0.049762	  0.218620	  0.173003	
0.532258	  0.050703	  0.212428	  0.173013	
0.565524	  0.051653	  0.207672	  0.174292	
0.59879	  0.052624	  0.204146	  0.176914	
0.632056	  0.053394	  0.201547	  0.180324	
0.665323	  0.053545	  0.199817	  0.183464	
0.698589	  0.052737	  0.199156	  0.185367	
0.731855	  0.050973	  0.199779	  0.185703	
0.765121	  0.048617	  0.201616	  0.184859	
0.798387	  0.046166	  0.204193	  0.183553	
0.831653	  0.044014	  0.206857	  0.182283	
0.864919	  0.042385	  0.209217	  0.181014	
0.898185	  0.041377	  0.211371	  0.179261	
0.931452	  0.041007	  0.213651	  0.176455	
0.964718	  0.041225	  0.216123	  0.172334	
0.997984	  0.041908	  0.218438	  0.167200	
1.03125	  0.042892	  0.220214	  0.161903	
1.06452	  0.043999	  0.221452	  0.157435	
1.09778	  0.045076	  0.222464	  0.154346	
1.13105	  0.046023	  0.223401	  0.152469	
1.16431	  0.046819	  0.223956	  0.151261	
1.19758	  0.047527	  0.223645	  0.150370	
1.23085	  0.048294	  0.222326	  0.149833	
1.26411	  0.049297	  0.220416	  0.149848	
1.29738	  0.050640	  0.218607	  0.150542	
1.33065	  0.052220	  0.217446	  0.151934	
1.36391	  0.053684	  0.217200	  0.153944	
1.39718	  0.054567	  0.217981	  0.156381	
1.43044	  0.054542	  0.219835	  0.159008	
1.46371	  0.053603	  0.222619	  0.161709	
1.49698	  0.052033	  0.225825	  0.164527	
1.53024	  0.050225	  0.228609	  0.167533	
1.56351	  0.048469	  0.230095	  0.170723	
1.59677	  0.046861	  0.229773	  0.174033	
1.63004	  0.045359	  0.227721	  0.177338	
1.66331	  0.043945	  0.224480	  0.180324	
1.69657	  0.042739	  0.220683	  0.182433	
1.72984	  0.041969	  0.216697	  0.183035	
1.7631	  0.041825	  0.212501	  0.181773	
1.79637	  0.042319	  0.207822	  0.178852	
1.82964	  0.043274	  0.202428	  0.175065	
1.8629	  0.044415	  0.196419	  0.171524	
1.89617	  0.045462	  0.190400	  0.169254	
1.92944	  0.046165	  0.185380	  0.168888	
1.9627	  0.046311	  0.182360	  0.170597	
1.99597	  0.045778	  0.181786	  0.174104	
2.02923	  0.044609	  0.183240	  0.178674	
2.0625	  0.043039	  0.185658	  0.183208	
2.09577	  0.041424	  0.187984	  0.186584	
2.12903	  0.040090	  0.189805	  0.188053	
2.1623	  0.039217	  0.191526	  0.187459	
2.19556	  0.038810	  0.193986	  0.185201	
2.22883	  0.038762	  0.197828	  0.182027	
2.2621	  0.038929	  0.203023	  0.178737	
2.29536	  0.039172	  0.208776	  0.175903	
2.32863	  0.039391	  0.213833	  0.173735	
2.3619	  0.039548	  0.217040	  0.172113	
2.39516	  0.039676	  0.217869	  0.170700	
2.42843	  0.039793	  0.216614	  0.169146	
2.46169	  0.039817	  0.214151	  0.167333	
2.49496	  0.039574	  0.211425	  0.165444	
2.52823	  0.038941	  0.209060	  0.163735	
2.56149	  0.037988	  0.207285	  0.162225	
2.59476	  0.036966	  0.206127	  0.160684	
2.62802	  0.036165	  0.205610	  0.158944	
2.66129	  0.035782	  0.205804	  0.157181	
2.69456	  0.035886	  0.206692	  0.155883	
2.72782	  0.036477	  0.207938	  0.155544	
2.76109	  0.037516	  0.208720	  0.156349	
2.79435	  0.038935	  0.207877	  0.158149	
2.82762	  0.040629	  0.204500	  0.160723	
2.86089	  0.042470	  0.198623	  0.163985	
2.89415	  0.044306	  0.191443	  0.167838	
2.92742	  0.045951	  0.184791	  0.171876	
2.96069	  0.047188	  0.180234	  0.175360	
2.99395	  0.047845	  0.178474	  0.177572	
3.02722	  0.047903	  0.179363	  0.178175	
3.06048	  0.047544	  0.182280	  0.177318	
3.09375	  0.047063	  0.186456	  0.175549	
3.12702	  0.046709	  0.191091	  0.173626	
3.16028	  0.046571	  0.195413	  0.172231	
3.19355	  0.046580	  0.198831	  0.171690	
3.22681	  0.046636	  0.201158	  0.171899	
3.26008	  0.046739	  0.202680	  0.172486	
3.29335	  0.047016	  0.203948	  0.173010	
3.32661	  0.047612	  0.205375	  0.173110	
3.35988	  0.048503	  0.206962	  0.172612	
3.39315	  0.049411	  0.208401	  0.171628	
3.42641	  0.049929	  0.209467	  0.170487	
3.45968	  0.049767	  0.210294	  0.169533	
3.49294	  0.048921	  0.211242	  0.168948	
3.52621	  0.047641	  0.212463	  0.168684	
3.55948	  0.046272	  0.213628	  0.168435	
3.59274	  0.045115	  0.214157	  0.167648	
3.62601	  0.044343	  0.213791	  0.165739	
3.65927	  0.043966	  0.212976	  0.162463	
3.69254	  0.043857	  0.212660	  0.158180	
3.72581	  0.043839	  0.213619	  0.153749	
3.75907	  0.043797	  0.215846	  0.150155	
3.79234	  0.043734	  0.218471	  0.148065	
3.8256	  0.043735	  0.220221	  0.147594	
3.85887	  0.043895	  0.220076	  0.148381	
3.89214	  0.044265	  0.217761	  0.149884	
3.9254	  0.044824	  0.213903	  0.151661	
3.95867	  0.045490	  0.209868	  0.153530	
3.99194	  0.046160	  0.207291	  0.155641	
4.0252	  0.046761	  0.207445	  0.158424	
4.05847	  0.047257	  0.210730	  0.162215	
4.09173	  0.047628	  0.216597	  0.166708	
4.125	  0.047868	  0.223934	  0.170846	
4.15827	  0.048022	  0.231596	  0.173474	
4.19153	  0.048228	  0.238746	  0.174189	
4.2248	  0.048677	  0.244926	  0.173462	
4.25806	  0.049522	  0.249983	  0.172012	
4.29133	  0.050781	  0.253903	  0.170265	
4.3246	  0.052281	  0.256588	  0.168419	
4.35786	  0.053696	  0.257690	  0.166747	
4.39113	  0.054664	  0.256727	  0.165592	
4.4244	  0.054952	  0.253441	  0.165115	
4.45766	  0.054558	  0.248090	  0.165211	
4.49093	  0.053688	  0.241382	  0.165676	
4.52419	  0.052623	  0.234119	  0.166407	
4.55746	  0.051578	  0.226838	  0.167478	
4.59073	  0.050650	  0.219730	  0.169093	
4.62399	  0.049826	  0.212829	  0.171355	
4.65726	  0.049010	  0.206301	  0.173905	
4.69052	  0.048059	  0.200576	  0.175790	
